<svg xmlns="http://www.w3.org/2000/svg">
<defs>
<clipPath id="a"><path d="M0 595.28h841.89V0H0z"/></clipPath>
</defs>
<symbol id="logo" viewBox="0 0 525.50768 156.26"><g clip-path="url(#a)" transform="matrix(1.33333 0 0 -1.33333 -297.618 474.983)"><path d="M340.408 297.64c0-32.361-26.234-58.597-58.598-58.597-32.36 0-58.597 26.236-58.597 58.597 0 32.363 26.236 58.598 58.597 58.598 32.364 0 58.598-26.235 58.598-58.598" fill="#ff4c7c"/><path d="M297.719 284.606c-.131-.798-.543-1.253-.947-1.49-.53-.343-1.401-.539-2.574-.61-1.12 0-20.545.061-20.545.061-4.13 0-7.65 1.454-10.592 4.398-2.946 2.946-4.403 6.465-4.403 10.595 0 4.13 1.457 7.65 4.403 10.595.117.115 1.47 1.748 4.41 3.118a19.536 19.536 0 0 1 1.5-5.862c1.389-3.215 3.418-5.785 6.127-7.715 2.91-2.065 6.342-3.918 17.578-8.758l1.86-.847c2.505-1.049 3.402-2.154 3.183-3.485m-4.57-2.133h-.135c-.38.01.16.016.797.02-.22-.007-.424-.02-.662-.02m22.597 12.006c-2.336 3.148-5.28 5.45-8.767 6.94-12.895 5.515-19.8 8.496-20.713 8.968-1.014.576-1.422 1.32-1.184 2.166.237.881.948 1.321 2.199 1.321h26.06c.51 0 .915.168 1.253.541.373.338.543.744.543 1.253l-.035 14.756c0 .506-.168.912-.541 1.286a1.687 1.687 0 0 1-1.252.507s-.067 0-.17-.033v.033h-24.367c-.744 0-1.47-.025-2.176-.07l-12.707-.074h-2.104c-8.13-.706-15.181-4.039-21.181-10.01-6.768-6.802-10.153-14.957-10.153-24.503 0-9.544 3.385-17.702 10.153-24.504 6.802-6.768 14.96-10.155 24.506-10.155h21.107c5.516 0 10.39 1.422 14.62 4.265 4.84 3.25 7.685 7.683 8.462 13.336.71 5.211-.473 9.883-3.553 13.977" fill="#fcfaf0"/><path d="M271.785 332.057c-5.043-2.55-11.928-13.63-8.725-23.901 1.252 1.172 2.954 2.438 4.411 3.097a19.987 19.987 0 0 0 .044 4.225c.575 5.178 3.047 9.409 7.344 12.658 3.588 2.709 8.225 4.063 13.912 4.063h-13.746c-1.097 0-2.179-.051-3.24-.142" fill="#ffd4e2"/><path d="M364.719 293.657c0 9.953 5.838 19.284 16.844 19.284 7.418 0 12.345-4.21 12.345-9.809 0-3.924-2.44-6.03-5.214-6.03-2.776 0-4.834 2.106-4.834 4.977l2.392 1.866c-.861 1.196-2.726 2.01-4.976 2.01-6.508 0-8.901-6.939-8.901-12.298 0-6.604 3.686-8.66 7.465-8.66 3.733 0 6.652 2.01 8.47 3.731l3.733-5.407c-2.01-2.058-5.695-5.31-12.394-5.31-8.47 0-14.93 5.214-14.93 15.646M409.408 296.672c3.828 0 6.937 1.148 6.937 4.785 0 2.823-1.914 4.115-5.742 4.115h-3.492l-1.244-8.9zm8.947-4.45l3.877-11.963-6.986-2.25-4.02 12.442H405.006l-1.627-11.484h-7.56l4.64 33.018h13.59c7.322 0 9.857-5.551 9.857-10.193 0-4.307-2.152-7.656-5.55-9.57M455.82 308.826l-12.873-15.695-1.96-14.164h-7.562l2.01 14.355-9.427 16.174 5.742 3.445 7.992-13.685 11.197 13.685zM475.531 301.266c0 2.775-1.77 4.307-5.646 4.307h-4.02l-1.34-9.666h4.02c3.875 0 6.986 1.674 6.986 5.359m7.561.335c0-7.465-5.838-12.106-13.495-12.106h-5.982l-1.482-10.528h-7.56l4.64 33.018h13.064c8.135 0 10.815-5.36 10.815-10.384M512.756 305.19h-9.953l-3.686-26.223h-7.56l3.685 26.223h-10.29l.958 6.795h27.803zM536.438 297.294c0 6.604-3.732 8.66-7.32 8.66-6.509 0-8.902-6.937-8.902-12.297 0-6.603 3.637-8.661 7.225-8.661 6.508 0 8.996 6.939 8.996 12.298m-23.877-3.637c0 9.953 5.839 19.284 16.845 19.284 8.135 0 14.689-5.215 14.689-15.647 0-9.953-5.933-19.284-16.94-19.284-8.134 0-14.593 5.216-14.593 15.647" fill="#cc0030"/><path d="M545.668 287.054c0 3.445 2.201 5.55 5.121 5.55 2.967 0 5.072-2.105 5.072-5.215l-2.488-1.627c.67-.957 2.535-1.723 4.977-1.723 3.254 0 5.168 1.34 5.168 3.733 0 2.632-2.155 3.54-5.073 4.833-3.158 1.387-9.332 4.163-9.332 11.1 0 6.222 4.977 9.237 11.438 9.237 6.316 0 10.91-2.871 10.91-7.944 0-3.445-2.154-5.455-4.93-5.455-2.822 0-5.023 2.01-5.023 4.833l2.201 1.819c-.719.622-1.771.909-2.967.909-2.01 0-3.972-.862-3.972-3.302 0-2.68 2.25-3.876 5.408-5.072 3.828-1.436 8.996-3.828 8.996-10.575 0-7.13-5.695-10.145-12.729-10.145-8.375 0-12.777 4.115-12.777 9.044M578.682 311.984h7.56l-4.642-33.018h-7.561zM605.332 295.14h11.389l-1.866-13.158c-1.867-1.58-5.982-3.972-11.771-3.972-8.471 0-14.93 5.216-14.93 15.648 0 9.953 5.838 19.284 16.844 19.284 7.416 0 12.346-4.211 12.346-9.81 0-3.924-2.442-6.03-5.217-6.03-2.775 0-4.832 2.106-4.832 4.977l2.392 1.867c-.861 1.196-2.728 2.009-4.976 2.009-6.508 0-8.9-6.938-8.9-12.297 0-6.604 3.683-8.662 7.464-8.662 1.723 0 3.254.43 4.641 1.053l.383 2.87h-4.498z" fill="#ff4c7c"/></g></symbol>
<symbol id="star" viewBox="0 0 64 64"><circle cx="32" cy="32" fill="#C75C5C" r="32"/><path d="M52.872 28.063a2.635 2.635 0 0 0-2.121-1.79l-11.327-1.645-5.067-10.263a2.628 2.628 0 0 0-4.714 0l-5.064 10.263-11.329 1.645a2.627 2.627 0 0 0-2.121 1.79 2.623 2.623 0 0 0 .665 2.694l8.197 7.99-1.934 11.283a2.63 2.63 0 0 0 2.589 3.072c.418 0 .838-.1 1.222-.302L32 47.473 42.132 52.8a2.624 2.624 0 0 0 2.767-.2 2.632 2.632 0 0 0 1.046-2.57L44.01 38.746l8.197-7.99a2.63 2.63 0 0 0 .665-2.693z" fill="#231F20" opacity=".2"/><path d="M52.872 26.063a2.635 2.635 0 0 0-2.121-1.79l-11.327-1.645-5.067-10.263a2.628 2.628 0 0 0-4.714 0l-5.064 10.263-11.329 1.645a2.627 2.627 0 0 0-2.121 1.79 2.623 2.623 0 0 0 .665 2.694l8.197 7.99-1.934 11.283a2.63 2.63 0 0 0 2.589 3.072c.418 0 .838-.1 1.222-.302L32 45.473 42.132 50.8a2.624 2.624 0 0 0 2.767-.2 2.632 2.632 0 0 0 1.046-2.57L44.01 36.746l8.197-7.99a2.63 2.63 0 0 0 .665-2.693z" fill="#F5CF87"/></symbol>
</svg>