<?xml version="1.0" encoding="UTF-8" standalone="no"?>
<!-- Created with Inkscape (http://www.inkscape.org/) -->

<svg
   xmlns:dc="http://purl.org/dc/elements/1.1/"
   xmlns:cc="http://creativecommons.org/ns#"
   xmlns:rdf="http://www.w3.org/1999/02/22-rdf-syntax-ns#"
   xmlns:svg="http://www.w3.org/2000/svg"
   xmlns="http://www.w3.org/2000/svg"
   xmlns:sodipodi="http://sodipodi.sourceforge.net/DTD/sodipodi-0.dtd"
   xmlns:inkscape="http://www.inkscape.org/namespaces/inkscape"
   version="1.1"
   id="svg2"
   xml:space="preserve"
   width="525.50769"
   height="156.25999"
   viewBox="0 0 525.50768 156.26"
   sodipodi:docname="logo.svg"
   inkscape:version="0.92.1 r15371"><metadata
     id="metadata8"><rdf:RDF><cc:Work
         rdf:about=""><dc:format>image/svg+xml</dc:format><dc:type
           rdf:resource="http://purl.org/dc/dcmitype/StillImage" /><dc:title></dc:title></cc:Work></rdf:RDF></metadata><defs
     id="defs6"><clipPath
       clipPathUnits="userSpaceOnUse"
       id="clipPath20"><path
         d="M 0,595.28 H 841.89 V 0 H 0 Z"
         id="path18"
         inkscape:connector-curvature="0" /></clipPath></defs><sodipodi:namedview
     pagecolor="#ffffff"
     bordercolor="#666666"
     borderopacity="1"
     objecttolerance="10"
     gridtolerance="10"
     guidetolerance="10"
     inkscape:pageopacity="0"
     inkscape:pageshadow="2"
     inkscape:window-width="1920"
     inkscape:window-height="1001"
     id="namedview4"
     showgrid="false"
     inkscape:zoom="1.1893563"
     inkscape:cx="110.04009"
     inkscape:cy="143.33637"
     inkscape:window-x="-9"
     inkscape:window-y="-9"
     inkscape:window-maximized="1"
     inkscape:current-layer="g10" /><g
     id="g10"
     inkscape:groupmode="layer"
     inkscape:label="Logo-Final"
     transform="matrix(1.3333333,0,0,-1.3333333,-297.61759,474.98345)"><g
       id="g14"><g
         id="g16"
         clip-path="url(#clipPath20)"><g
           id="g22"
           transform="translate(340.4082,297.6396)"><path
             d="m 0,0 c 0,-32.361 -26.234,-58.597 -58.598,-58.597 -32.361,0 -58.597,26.236 -58.597,58.597 0,32.363 26.236,58.598 58.597,58.598 C -26.234,58.598 0,32.363 0,0"
             style="fill:#ff4c7c;fill-opacity:1;fill-rule:nonzero;stroke:none"
             id="path24"
             inkscape:connector-curvature="0" /></g><g
           id="g26"
           transform="translate(297.7187,284.6064)"><path
             d="m 0,0 c -0.131,-0.798 -0.543,-1.253 -0.947,-1.49 -0.53,-0.343 -1.401,-0.539 -2.574,-0.61 -1.12,0 -20.545,0.061 -20.545,0.061 -4.129,0 -7.649,1.454 -10.592,4.398 -2.946,2.946 -4.403,6.465 -4.403,10.595 0,4.13 1.457,7.65 4.403,10.595 0.117,0.115 1.47,1.748 4.41,3.118 0.189,-1.993 0.682,-3.946 1.5,-5.862 1.389,-3.215 3.418,-5.785 6.127,-7.715 2.91,-2.065 6.342,-3.918 17.578,-8.758 L -3.182,3.485 C -0.678,2.436 0.219,1.331 0,0 m -4.57,-2.133 h -0.135 c -0.379,0.009 0.16,0.016 0.797,0.02 -0.219,-0.007 -0.424,-0.02 -0.662,-0.02 M 18.027,9.873 c -2.336,3.148 -5.279,5.449 -8.767,6.939 -12.895,5.516 -19.799,8.497 -20.713,8.969 -1.014,0.576 -1.422,1.32 -1.184,2.166 0.237,0.881 0.948,1.321 2.199,1.321 h 26.061 c 0.51,0 0.914,0.168 1.252,0.541 0.373,0.338 0.543,0.744 0.543,1.253 l -0.035,14.756 c 0,0.506 -0.168,0.912 -0.541,1.286 -0.338,0.337 -0.744,0.507 -1.252,0.507 0,0 -0.067,0 -0.17,-0.033 v 0.033 H -8.947 c -0.744,0 -1.469,-0.025 -2.176,-0.071 L -23.83,47.467 h -2.104 c -8.129,-0.706 -15.181,-4.039 -21.181,-10.01 -6.768,-6.802 -10.153,-14.957 -10.153,-24.503 0,-9.544 3.385,-17.702 10.153,-24.504 6.802,-6.768 14.961,-10.155 24.506,-10.155 h 8.984 2.514 9.609 c 5.516,0 10.391,1.422 14.621,4.265 4.84,3.25 7.684,7.683 8.461,13.336 0.711,5.211 -0.473,9.883 -3.553,13.977"
             style="fill:#fcfaf0;fill-opacity:1;fill-rule:nonzero;stroke:none"
             id="path28"
             inkscape:connector-curvature="0" /></g><g
           id="g30"
           transform="translate(271.7852,332.0566)"><path
             d="m 0,0 c -5.043,-2.55 -11.928,-13.63 -8.725,-23.901 1.252,1.172 2.954,2.438 4.411,3.097 -0.133,1.389 -0.122,2.795 0.044,4.225 0.575,5.178 3.047,9.409 7.344,12.658 3.588,2.709 8.225,4.063 13.912,4.063 H 3.24 C 2.143,0.142 1.061,0.091 0,0"
             style="fill:#ffd4e2;fill-opacity:1;fill-rule:nonzero;stroke:none"
             id="path32"
             inkscape:connector-curvature="0" /></g><g
           id="g34"
           transform="translate(364.7187,293.6572)"><path
             d="m 0,0 c 0,9.953 5.838,19.284 16.844,19.284 7.418,0 12.345,-4.211 12.345,-9.809 0,-3.924 -2.439,-6.03 -5.214,-6.03 -2.776,0 -4.834,2.106 -4.834,4.977 l 2.392,1.866 c -0.861,1.196 -2.726,2.01 -4.976,2.01 -6.508,0 -8.901,-6.939 -8.901,-12.298 0,-6.604 3.686,-8.661 7.465,-8.661 3.733,0 6.652,2.01 8.471,3.732 l 3.732,-5.407 C 25.314,-12.394 21.629,-15.647 14.93,-15.647 6.461,-15.647 0,-10.432 0,0"
             style="fill:#cc0030;fill-opacity:1;fill-rule:nonzero;stroke:none"
             id="path36"
             inkscape:connector-curvature="0" /></g><g
           id="g38"
           transform="translate(409.4082,296.6719)"><path
             d="M 0,0 C 3.828,0 6.937,1.148 6.937,4.785 6.937,7.608 5.023,8.9 1.195,8.9 H -2.297 L -3.541,0 Z m 8.947,-4.45 3.877,-11.963 -6.986,-2.249 -4.02,12.441 H 1.627 -4.402 l -1.627,-11.484 h -7.561 l 4.641,33.018 h 13.59 c 7.322,0 9.857,-5.551 9.857,-10.193 0,-4.307 -2.152,-7.656 -5.551,-9.57"
             style="fill:#cc0030;fill-opacity:1;fill-rule:nonzero;stroke:none"
             id="path40"
             inkscape:connector-curvature="0" /></g><g
           id="g42"
           transform="translate(455.8203,308.8262)"><path
             d="m 0,0 -12.873,-15.695 -1.961,-14.164 h -7.561 l 2.01,14.355 -9.427,16.174 5.742,3.445 7.992,-13.685 11.197,13.685 z"
             style="fill:#cc0030;fill-opacity:1;fill-rule:nonzero;stroke:none"
             id="path44"
             inkscape:connector-curvature="0" /></g><g
           id="g46"
           transform="translate(475.5312,301.2656)"><path
             d="m 0,0 c 0,2.775 -1.771,4.307 -5.646,4.307 h -4.02 l -1.34,-9.666 h 4.02 C -3.111,-5.359 0,-3.685 0,0 m 7.561,0.335 c 0,-7.465 -5.838,-12.106 -13.495,-12.106 h -5.982 l -1.482,-10.528 h -7.561 l 4.641,33.018 h 13.064 c 8.135,0 10.815,-5.36 10.815,-10.384"
             style="fill:#cc0030;fill-opacity:1;fill-rule:nonzero;stroke:none"
             id="path48"
             inkscape:connector-curvature="0" /></g><g
           id="g50"
           transform="translate(512.7559,305.1895)"><path
             d="m 0,0 h -9.953 l -3.686,-26.223 h -7.56 L -17.514,0 h -10.289 l 0.957,6.795 H 0.957 Z"
             style="fill:#cc0030;fill-opacity:1;fill-rule:nonzero;stroke:none"
             id="path52"
             inkscape:connector-curvature="0" /></g><g
           id="g54"
           transform="translate(536.4375,297.2939)"><path
             d="m 0,0 c 0,6.604 -3.732,8.661 -7.32,8.661 -6.508,0 -8.901,-6.938 -8.901,-12.298 0,-6.603 3.637,-8.661 7.225,-8.661 C -2.488,-12.298 0,-5.359 0,0 m -23.877,-3.637 c 0,9.953 5.838,19.284 16.844,19.284 8.135,0 14.689,-5.215 14.689,-15.647 0,-9.953 -5.933,-19.284 -16.939,-19.284 -8.135,0 -14.594,5.216 -14.594,15.647"
             style="fill:#cc0030;fill-opacity:1;fill-rule:nonzero;stroke:none"
             id="path56"
             inkscape:connector-curvature="0" /></g><g
           id="g58"
           transform="translate(545.668,287.0537)"><path
             d="m 0,0 c 0,3.445 2.201,5.551 5.121,5.551 2.967,0 5.072,-2.106 5.072,-5.216 L 7.705,-1.292 c 0.67,-0.957 2.535,-1.723 4.977,-1.723 3.254,0 5.168,1.34 5.168,3.733 0,2.632 -2.155,3.541 -5.073,4.833 -3.158,1.387 -9.332,4.163 -9.332,11.101 0,6.221 4.977,9.236 11.438,9.236 6.316,0 10.91,-2.871 10.91,-7.944 0,-3.445 -2.154,-5.455 -4.93,-5.455 -2.822,0 -5.023,2.01 -5.023,4.833 l 2.201,1.819 c -0.719,0.622 -1.771,0.909 -2.967,0.909 -2.01,0 -3.972,-0.862 -3.972,-3.302 0,-2.68 2.25,-3.876 5.408,-5.072 3.828,-1.436 8.996,-3.828 8.996,-10.575 0,-7.13 -5.695,-10.145 -12.729,-10.145 C 4.402,-9.044 0,-4.929 0,0"
             style="fill:#ff4c7c;fill-opacity:1;fill-rule:nonzero;stroke:none"
             id="path60"
             inkscape:connector-curvature="0" /></g><g
           id="g62"
           transform="translate(578.6816,311.9844)"><path
             d="M 0,0 H 7.561 L 2.918,-33.018 h -7.561 z"
             style="fill:#ff4c7c;fill-opacity:1;fill-rule:nonzero;stroke:none"
             id="path64"
             inkscape:connector-curvature="0" /></g><g
           id="g66"
           transform="translate(605.332,295.1406)"><path
             d="M 0,0 H 11.389 L 9.523,-13.159 c -1.867,-1.579 -5.982,-3.972 -11.771,-3.972 -8.471,0 -14.93,5.216 -14.93,15.648 0,9.953 5.838,19.284 16.844,19.284 7.416,0 12.346,-4.211 12.346,-9.81 0,-3.924 -2.442,-6.029 -5.217,-6.029 -2.775,0 -4.832,2.105 -4.832,4.976 l 2.392,1.867 c -0.861,1.196 -2.728,2.009 -4.976,2.009 -6.508,0 -8.9,-6.938 -8.9,-12.297 0,-6.604 3.683,-8.662 7.464,-8.662 1.723,0 3.254,0.431 4.641,1.053 l 0.383,2.871 h -4.498 z"
             style="fill:#ff4c7c;fill-opacity:1;fill-rule:nonzero;stroke:none"
             id="path68"
             inkscape:connector-curvature="0" /></g></g></g></g></svg>